<svg width="61" height="61" viewBox="0 0 61 61" fill="none" xmlns="http://www.w3.org/2000/svg">
<rect width="61" height="61" fill="#222222"/>
<path fill-rule="evenodd" clip-rule="evenodd" d="M30.601 14.39C21.471 14.39 14.014 21.169 14.014 30.662C14.014 40.198 21.472 46.933 30.602 46.933C39.778 46.933 47.235 40.198 47.235 30.662C47.235 21.17 39.777 14.39 30.601 14.39ZM30.601 46.164C23.596 46.164 17.132 40.464 17.132 30.664C17.132 20.9 23.595 15.205 30.601 15.205C37.607 15.205 44.071 20.905 44.071 30.664C44.071 40.469 37.607 46.164 30.601 46.164ZM36.901 38.324C35.1402 39.8776 32.8727 40.7349 30.5245 40.7349C28.1763 40.7349 25.9088 39.8776 24.148 38.324H36.901ZM30.813 23.208L25.697 37.163H24.419L30.813 19.721L37.213 37.162H35.931L30.813 23.208ZM30.506 6C31.0117 6 31.5061 6.14996 31.9266 6.43093C32.3471 6.7119 32.6748 7.11125 32.8684 7.57848C33.0619 8.04571 33.1125 8.55984 33.0139 9.05585C32.9152 9.55186 32.6717 10.0075 32.3141 10.3651C31.9565 10.7227 31.5009 10.9662 31.0048 11.0649C30.5088 11.1635 29.9947 11.1129 29.5275 10.9194C29.0602 10.7258 28.6609 10.3981 28.3799 9.97759C28.099 9.5571 27.949 9.06273 27.949 8.557C27.949 7.87884 28.2184 7.22845 28.6979 6.74892C29.1775 6.26939 29.8278 6 30.506 6ZM30.506 49.9C31.0115 49.8998 31.5057 50.0495 31.9262 50.33C32.3467 50.6106 32.6746 51.0095 32.8685 51.4764C33.0623 51.9433 33.1135 52.4571 33.0154 52.953C32.9174 53.4489 32.6745 53.9047 32.3175 54.2626C31.9606 54.6205 31.5055 54.8646 31.0099 54.9641C30.5142 55.0635 30.0002 55.0138 29.5329 54.8212C29.0655 54.6286 28.6656 54.3018 28.3839 53.8821C28.1022 53.4623 27.9512 52.9685 27.95 52.463C27.9496 52.127 28.0154 51.7941 28.1438 51.4836C28.2721 51.173 28.4604 50.8907 28.6979 50.653C28.9353 50.4152 29.2174 50.2266 29.5278 50.0979C29.8382 49.9692 30.171 49.903 30.507 49.903L30.506 49.9ZM55.014 30.506C55.015 31.0121 54.8658 31.507 54.5853 31.9283C54.3048 32.3495 53.9056 32.678 53.4383 32.8722C52.971 33.0664 52.4565 33.1176 51.9601 33.0193C51.4637 32.9209 51.0076 32.6775 50.6496 32.3198C50.2917 31.9621 50.0479 31.5062 49.9491 31.0098C49.8504 30.5135 49.9012 29.999 50.095 29.5316C50.2889 29.0641 50.6171 28.6646 51.0381 28.3838C51.4591 28.103 51.9539 27.9534 52.46 27.954C53.1378 27.9543 53.7878 28.2236 54.2671 28.7029C54.7464 29.1822 55.0157 29.8322 55.016 30.51L55.014 30.506ZM11.114 30.506C11.115 31.0121 10.9658 31.507 10.6853 31.9283C10.4048 32.3495 10.0056 32.678 9.53829 32.8722C9.07097 33.0664 8.55654 33.1176 8.06012 33.0193C7.5637 32.9209 7.10762 32.6775 6.74964 32.3198C6.39165 31.9621 6.14786 31.5062 6.04913 31.0098C5.9504 30.5135 6.00118 29.999 6.19502 29.5316C6.38887 29.0641 6.71707 28.6646 7.13807 28.3838C7.55907 28.103 8.05393 27.9534 8.55999 27.954C9.23781 27.9543 9.88778 28.2236 10.3671 28.7029C10.8464 29.1822 11.1157 29.8322 11.116 30.51L11.114 30.506Z" fill="white"/>
</svg>
