<svg xmlns="http://www.w3.org/2000/svg" width="865.697" height="865.711" viewBox="0 0 865.697 865.711">
  <path id="Ellipse_5_copie_2" data-name="Ellipse 5 copie 2" d="M462.883,76.037h.019a45.717,45.717,0,1,1-.019,0Zm.014,90.228a44.614,44.614,0,1,0,.005-89.228h-.014a44.614,44.614,0,1,0,.009,89.228Zm1.655,57.789a320.338,320.338,0,0,1,59.175,5.475,304.712,304.712,0,0,1,55.146,15.864A292.746,292.746,0,0,1,628.8,270.8a283.41,283.41,0,0,1,43.518,34.12,275.758,275.758,0,0,1,63.049,90.993A284.457,284.457,0,0,1,752.517,451.1a310.207,310.207,0,0,1,0,121.248,284.664,284.664,0,0,1-17.147,55.285,274.686,274.686,0,0,1-63.045,90.949,282.4,282.4,0,0,1-43.517,34.03,292.452,292.452,0,0,1-49.926,25.315,305.415,305.415,0,0,1-55.146,15.785,322.993,322.993,0,0,1-118.086,0,303.823,303.823,0,0,1-54.948-15.785,291.74,291.74,0,0,1-49.785-25.315A282.3,282.3,0,0,1,257.5,718.583a275,275,0,0,1-62.958-90.948A284.951,284.951,0,0,1,177.4,572.351a310.414,310.414,0,0,1,0-121.248,284.736,284.736,0,0,1,17.135-55.185,276.038,276.038,0,0,1,62.953-90.993,283.261,283.261,0,0,1,43.419-34.12,292,292,0,0,1,49.782-25.412,303.081,303.081,0,0,1,54.947-15.864A317.663,317.663,0,0,1,464.552,224.054Zm.014,574.1a321.066,321.066,0,0,0,58.99-5.425A304.413,304.413,0,0,0,578.52,777a291.46,291.46,0,0,0,49.755-25.228,281.4,281.4,0,0,0,43.363-33.91,273.682,273.682,0,0,0,62.816-90.618,283.653,283.653,0,0,0,17.087-55.09,309.206,309.206,0,0,0,0-120.851,283.457,283.457,0,0,0-17.09-54.991,274.754,274.754,0,0,0-62.821-90.664,282.418,282.418,0,0,0-43.364-34,291.753,291.753,0,0,0-49.756-25.325,303.7,303.7,0,0,0-54.965-15.811,320.124,320.124,0,0,0-117.716,0,302.089,302.089,0,0,0-54.765,15.811,291,291,0,0,0-49.612,25.325,282.266,282.266,0,0,0-43.266,34,275.045,275.045,0,0,0-62.725,90.664A283.737,283.737,0,0,0,178.385,451.3a309.412,309.412,0,0,0,0,120.852,283.945,283.945,0,0,0,17.076,55.09,274,274,0,0,0,62.729,90.619,281.289,281.289,0,0,0,43.268,33.91A290.751,290.751,0,0,0,351.072,777a302.822,302.822,0,0,0,54.767,15.733A318.381,318.381,0,0,0,464.565,798.156Zm-.014-559.75a225.559,225.559,0,0,1,129.783,40.962,233.048,233.048,0,0,1,35.737,30.959A245.442,245.442,0,0,1,660,349.374a267.487,267.487,0,0,1,22.893,46.792c13.126,34.983,19.781,73.827,19.781,115.452,0,41.805-6.655,80.8-19.779,115.89A268.268,268.268,0,0,1,660,674.435a245.621,245.621,0,0,1-29.927,39.137,232.851,232.851,0,0,1-35.736,31.014,225.677,225.677,0,0,1-259.567,0,232.864,232.864,0,0,1-35.735-31.014,245.622,245.622,0,0,1-29.926-39.137,268.27,268.27,0,0,1-22.891-46.927c-13.124-35.094-19.779-74.085-19.779-115.89,0-41.628,6.655-80.474,19.779-115.458a267.477,267.477,0,0,1,22.891-46.792,245.417,245.417,0,0,1,29.926-39.045,233.006,233.006,0,0,1,35.735-30.958,225.554,225.554,0,0,1,129.778-40.959Zm0,546.182a224.292,224.292,0,0,0,129.214-40.821,231.85,231.85,0,0,0,35.583-30.88,244.625,244.625,0,0,0,29.8-38.977,267.263,267.263,0,0,0,22.805-46.751c13.082-34.981,19.716-73.854,19.716-115.54,0-41.5-6.634-80.23-19.717-115.1A266.479,266.479,0,0,0,659.15,349.9a244.454,244.454,0,0,0-29.806-38.887,232.049,232.049,0,0,0-35.584-30.826,224.889,224.889,0,0,0-258.413,0,232.018,232.018,0,0,0-35.581,30.825,244.413,244.413,0,0,0-29.8,38.886,266.477,266.477,0,0,0-22.8,46.617c-13.082,34.871-19.715,73.6-19.715,115.107,0,41.685,6.633,80.558,19.715,115.54a267.279,267.279,0,0,0,22.8,46.751,244.627,244.627,0,0,0,29.8,38.977,231.846,231.846,0,0,0,35.581,30.88,224.312,224.312,0,0,0,129.2,40.821ZM468.3,317.157l.469,1.28L581.833,626.79h-23.6L468.3,381.558,378.38,626.8h-23.6l.246-.672ZM580.4,625.79,468.3,320.062,356.21,625.8h21.471L468.3,378.653l.469,1.28L558.93,625.79ZM75.639,463.326v1A44.473,44.473,0,1,0,93,467.834a44.321,44.321,0,0,0-17.358-3.508l0-.5,0-.5a45.577,45.577,0,0,1,45.6,45.587h0a45.625,45.625,0,1,1-45.6-45.587Zm774.5,0v.5l0-.5a45.562,45.562,0,0,1,45.6,45.553h0v.033a45.626,45.626,0,1,1-45.6-45.587Zm44.6,45.614v-.032a44.56,44.56,0,0,0-44.6-44.582h0a44.625,44.625,0,1,0,44.6,44.614ZM349.383,646.284H577l-.992.875a170.385,170.385,0,0,1-225.635,0Zm224.966,1H352.036a169.377,169.377,0,0,0,222.313,0ZM462.888,850.548a45.459,45.459,0,1,1-17.75,3.584A45.316,45.316,0,0,1,462.888,850.548Zm0,90.2a44.46,44.46,0,1,0-17.36-3.5A44.32,44.32,0,0,0,462.888,940.748Z" transform="translate(-30.039 -76.037)" fill="#e6e6e6"/>
</svg>
