<svg xmlns="http://www.w3.org/2000/svg" width="658.771" height="658.781" viewBox="0 0 658.771 658.781">
  <path id="Union_4" data-name="Union 4" d="M315.837,656.046a34.925,34.925,0,1,1,13.549,2.735A34.689,34.689,0,0,1,315.837,656.046ZM285.826,546.17a231.307,231.307,0,0,1-41.82-12.014,222.035,222.035,0,0,1-37.891-19.267,214.869,214.869,0,0,1-33.05-25.9,209.308,209.308,0,0,1-47.919-69.224A216.867,216.867,0,0,1,112.1,377.687a236.271,236.271,0,0,1,0-92.281,216.734,216.734,0,0,1,13.042-42,210.118,210.118,0,0,1,47.915-69.258,215.553,215.553,0,0,1,33.047-25.969A222.237,222.237,0,0,1,244,128.836a230.653,230.653,0,0,1,41.819-12.074,244.378,244.378,0,0,1,89.873,0,231.852,231.852,0,0,1,41.971,12.074,222.806,222.806,0,0,1,38,19.341,215.732,215.732,0,0,1,33.123,25.969A209.888,209.888,0,0,1,536.769,243.4a216.491,216.491,0,0,1,13.054,42,236.112,236.112,0,0,1,0,92.281,216.651,216.651,0,0,1-13.052,42.078,209.035,209.035,0,0,1-47.985,69.224,214.906,214.906,0,0,1-33.122,25.9,222.563,222.563,0,0,1-38,19.267A232.438,232.438,0,0,1,375.7,546.17a245.836,245.836,0,0,1-89.872,0Zm10.168-418.128a170.695,170.695,0,0,0-63.559,27.469,176.356,176.356,0,0,0-27.048,23.432A185.78,185.78,0,0,0,182.731,208.5a202.547,202.547,0,0,0-17.338,35.44c-9.946,26.513-14.99,55.958-14.99,87.519,0,31.7,5.044,61.252,14.99,87.849a203.222,203.222,0,0,0,17.338,35.543,185.913,185.913,0,0,0,22.657,29.63,176.252,176.252,0,0,0,27.048,23.475,170.8,170.8,0,0,0,196.44,0,176.174,176.174,0,0,0,27.049-23.475,185.921,185.921,0,0,0,22.658-29.63,203.219,203.219,0,0,0,17.337-35.543c9.947-26.6,14.99-56.153,14.99-87.849,0-31.558-5.044-61-14.991-87.514a202.548,202.548,0,0,0-17.339-35.44,185.841,185.841,0,0,0-22.659-29.562,176.423,176.423,0,0,0-27.049-23.433,171.3,171.3,0,0,0-132.877-27.472ZM306.7,465.106a129.4,129.4,0,0,1-62.986-30.447l-.992-.875H416.507l-.991.875a129.4,129.4,0,0,1-62.986,30.447,130.308,130.308,0,0,1-45.827,0Zm-59.728-45.9L333.5,183.191l.47,1.281,86.067,234.723H401.829l-.121-.328L333.5,232.875,265.184,419.2Zm363.442-57.716a34.808,34.808,0,0,1,13.546-66.88v.5l0-.5a34.776,34.776,0,0,1,34.806,34.764v.033a34.824,34.824,0,0,1-48.354,32.082Zm-589.156,0a34.808,34.808,0,0,1,13.547-66.88v.5h0l0-.5a34.808,34.808,0,1,1-13.549,66.88ZM315.841,66.9A34.818,34.818,0,0,1,329.382,0h.014a34.827,34.827,0,0,1,13.552,66.9,34.93,34.93,0,0,1-27.108,0Z" fill="#fff"/>
</svg>
